SiMBALORD PRESENTS
... A UKB RELEASE

TiTLE: The Sorcerer's apprentice
TYPE : x264 DVDRip
SiZE : 1.06 GB (1,144,366,059 bytes)

PLOT : Master sorcerer Balthazar Blake
recruits a seemingly everyday guy in
his mission to defend New York City
from his arch-nemesis, Maxim Horvath.

CAST :
Nicolas Cage ... Balthazar Blake
Jay Baruchel ... Dave
Alfred Molina ... Maxim Horvath
Teresa Palmer ... Becky Barnes
Toby Kebbell ... Drake Stone
Omar Benson Miller ... Bennet
Monica Bellucci ... Veronica
Alice Krige ... Morgana le Fay
Jake Cherry ... Young Dave
James A. Stephens ... Merlin
Gregory Woo ... Sun-Lok
Wai Ching Ho ... Chinese Woman
Jason R. Moore ... Subway Mugger
Robert Capron ... Young Dave's Pal
Peyton List ... Young Becky

iMDB : tt0963966

General
Complete name : The.Sorcerers.Apprentice[x264][Simbalord.UKB.Release].mp4
Format : MPEG-4
Format profile : Base Media
Codec ID : isom
File size : 1.07 GiB
Duration : 1h 49mn
Overall bit rate : 1 399 Kbps

Video
ID : 1
Format : AVC
Format/Info : Advanced Video Codec
Format profile : Main@L4.1
Format settings, CABAC : Yes
Format settings, ReFrames : 3 frames
Codec ID : avc1
Codec ID/Info : Advanced Video Coding
Duration : 1h 49mn
Bit rate mode : Variable
Bit rate : 1 200 Kbps
Maximum bit rate : 5 882 Kbps
Width : 720 pixels
Height : 304 pixels
Display aspect ratio : 2.35:1
Frame rate mode : Constant
Frame rate : 23.976 fps
Resolution : 8 bits
Colorimetry : 4:2:0
Scan type : Progressive
Bits/(Pixel*Frame) : 0.229
Stream size : 936 MiB (86%)
Writing library : x264 core 65 r999kMod cc51047
Encoding settings : cabac=1 / ref=3 / deblock=1:0:0 / analyse=0x1:0 / me=dia / subme=1 /
psy_rd=0.0:0.0 / mixed_ref=1 / me_range=16 / chroma_me=1 / trellis=0 /
8x8dct=0 / cqm=0 / deadzone=21,11 / chroma_qp_offset=0 / threads=2 /
thread_queue=2 / nr=0 / decimate=1 / mbaff=0 / bframes=3 / b_pyramid=1 /
b_adapt=1 / b_bias=0 / direct=3 / wpredb=0 / keyint=250 / keyint_min=25 /
scenecut=40(pre) / rc=2pass / bitrate=1200 / ratetol=1.0 / qcomp=0.60 /
qpmin=10 / qpmax=51 / qpstep=4 / cplxblur=20.0 / qblur=0.5 / ip_ratio=1.40 /
pb_ratio=1.30 / aq=1:1.00

Audio
ID : 2
Format : AAC
Format/Info : Advanced Audio Codec
Format version : Version 4
Format profile : LC
Format settings, SBR : No
Codec ID : 40
Duration : 1h 49mn
Bit rate mode : Variable
Bit rate : 192 Kbps
Maximum bit rate : 343 Kbps
Channel(s) : 6 channels
Channel positions : Front: L C R, Rear: L R, LFE
Sampling rate : 48.0 KHz
Stream size : 152 MiB (14%)